<svg xmlns="http://www.w3.org/2000/svg" width="960" height="420" viewBox="0 0 960 420">
<rect width="100%" height="100%" fill="white" />
<text x="40" y="34" font-size="22">Complexity-normalized projected full-complexity ms/step</text>
<text x="40" y="56" font-size="14">Generated from append-only archival history.</text>
<line x1="70.0" y1="350.0" x2="890.0" y2="350.0" stroke="black" />
<line x1="70.0" y1="70.0" x2="70.0" y2="350.0" stroke="black" />
<text x="12" y="70.0" font-size="12">normalized ms/step</text>
<circle cx="70.00" cy="177.06" r="4.5" fill="#1f77b4" />
<text x="52.00" y="370.00" font-size="10">1</text>
<circle cx="187.14" cy="70.00" r="4.5" fill="#1f77b4" />
<text x="169.14" y="370.00" font-size="10">2</text>
<circle cx="304.29" cy="175.77" r="4.5" fill="#1f77b4" />
<text x="286.29" y="370.00" font-size="10">3</text>
<circle cx="421.43" cy="350.00" r="4.5" fill="#1f77b4" />
<text x="403.43" y="370.00" font-size="10">4</text>
<circle cx="538.57" cy="130.60" r="4.5" fill="#1f77b4" />
<text x="520.57" y="370.00" font-size="10">5</text>
<circle cx="655.71" cy="164.59" r="4.5" fill="#1f77b4" />
<text x="637.71" y="370.00" font-size="10">6</text>
<circle cx="772.86" cy="118.22" r="4.5" fill="#1f77b4" />
<text x="754.86" y="370.00" font-size="10">7</text>
<circle cx="890.00" cy="155.45" r="4.5" fill="#1f77b4" />
<text x="872.00" y="370.00" font-size="10">8</text>
<polyline fill="none" stroke="#1f77b4" stroke-width="2" points="70.00,177.06 187.14,70.00 304.29,175.77 421.43,350.00 538.57,130.60 655.71,164.59 772.86,118.22 890.00,155.45" />
<text x="720.0" y="80.0" font-size="12">min=0.7596</text>
<text x="720.0" y="96.0" font-size="12">max=1.0840</text>
</svg>