<svg xmlns="http://www.w3.org/2000/svg" width="900" height="540" viewBox="0 0 900 540">
<rect width="100%" height="100%" fill="white" />
<text x="40" y="36" font-size="22">POC1 benchmark body snapshot</text>
<text x="40" y="60" font-size="14">Blue markers are agent bodies. Gray markers are non-agent bodies. Final positions captured after the benchmark window.</text>
<line x1="60.0" y1="480.0" x2="840.0" y2="480.0" stroke="black" stroke-width="1" />
<line x1="60.0" y1="60.0" x2="60.0" y2="480.0" stroke="black" stroke-width="1" />
<circle cx="519.38" cy="480.00" r="4.2" fill="#1f77b4" fill-opacity="0.85" />
<circle cx="263.61" cy="441.66" r="4.2" fill="#1f77b4" fill-opacity="0.85" />
<circle cx="581.87" cy="324.42" r="4.2" fill="#1f77b4" fill-opacity="0.85" />
<circle cx="600.09" cy="479.77" r="4.2" fill="#1f77b4" fill-opacity="0.85" />
<circle cx="631.79" cy="479.87" r="4.2" fill="#1f77b4" fill-opacity="0.85" />
<circle cx="258.49" cy="474.73" r="4.2" fill="#1f77b4" fill-opacity="0.85" />
<circle cx="320.86" cy="480.00" r="4.2" fill="#1f77b4" fill-opacity="0.85" />
<circle cx="810.55" cy="431.54" r="4.2" fill="#1f77b4" fill-opacity="0.85" />
<circle cx="338.45" cy="362.07" r="4.2" fill="#1f77b4" fill-opacity="0.85" />
<circle cx="583.59" cy="273.48" r="4.2" fill="#1f77b4" fill-opacity="0.85" />
<circle cx="269.69" cy="395.10" r="4.2" fill="#1f77b4" fill-opacity="0.85" />
<circle cx="163.35" cy="476.69" r="4.2" fill="#1f77b4" fill-opacity="0.85" />
<circle cx="451.42" cy="455.27" r="4.2" fill="#1f77b4" fill-opacity="0.85" />
<circle cx="98.57" cy="443.73" r="4.2" fill="#1f77b4" fill-opacity="0.85" />
<circle cx="585.78" cy="388.11" r="4.2" fill="#1f77b4" fill-opacity="0.85" />
<circle cx="458.86" cy="455.46" r="4.2" fill="#1f77b4" fill-opacity="0.85" />
<circle cx="412.03" cy="480.00" r="4.2" fill="#1f77b4" fill-opacity="0.85" />
<circle cx="784.03" cy="436.70" r="4.2" fill="#1f77b4" fill-opacity="0.85" />
<circle cx="412.91" cy="407.82" r="4.2" fill="#1f77b4" fill-opacity="0.85" />
<circle cx="530.26" cy="423.34" r="4.2" fill="#1f77b4" fill-opacity="0.85" />
<circle cx="238.72" cy="455.30" r="4.2" fill="#1f77b4" fill-opacity="0.85" />
<circle cx="391.72" cy="389.04" r="4.2" fill="#1f77b4" fill-opacity="0.85" />
<circle cx="619.06" cy="469.86" r="4.2" fill="#1f77b4" fill-opacity="0.85" />
<circle cx="531.85" cy="460.09" r="4.2" fill="#1f77b4" fill-opacity="0.85" />
<circle cx="303.48" cy="413.94" r="4.2" fill="#1f77b4" fill-opacity="0.85" />
<circle cx="539.24" cy="449.37" r="4.2" fill="#1f77b4" fill-opacity="0.85" />
<circle cx="401.77" cy="398.75" r="4.2" fill="#1f77b4" fill-opacity="0.85" />
<circle cx="541.54" cy="480.00" r="4.2" fill="#1f77b4" fill-opacity="0.85" />
<circle cx="345.42" cy="479.44" r="4.2" fill="#1f77b4" fill-opacity="0.85" />
<circle cx="566.79" cy="374.09" r="4.2" fill="#1f77b4" fill-opacity="0.85" />
<circle cx="644.34" cy="415.90" r="4.2" fill="#1f77b4" fill-opacity="0.85" />
<circle cx="196.17" cy="470.85" r="4.2" fill="#1f77b4" fill-opacity="0.85" />
<circle cx="289.00" cy="465.42" r="4.2" fill="#7f7f7f" fill-opacity="0.85" />
<circle cx="306.00" cy="468.63" r="4.2" fill="#7f7f7f" fill-opacity="0.85" />
<circle cx="60.00" cy="191.68" r="4.2" fill="#7f7f7f" fill-opacity="0.85" />
<circle cx="802.84" cy="480.00" r="4.2" fill="#7f7f7f" fill-opacity="0.85" />
<circle cx="263.04" cy="415.57" r="4.2" fill="#7f7f7f" fill-opacity="0.85" />
<circle cx="63.79" cy="440.31" r="4.2" fill="#7f7f7f" fill-opacity="0.85" />
<circle cx="590.61" cy="435.22" r="4.2" fill="#7f7f7f" fill-opacity="0.85" />
<circle cx="477.54" cy="471.13" r="4.2" fill="#7f7f7f" fill-opacity="0.85" />
<circle cx="164.92" cy="354.14" r="4.2" fill="#7f7f7f" fill-opacity="0.85" />
<circle cx="130.41" cy="348.33" r="4.2" fill="#7f7f7f" fill-opacity="0.85" />
<circle cx="225.95" cy="434.28" r="4.2" fill="#7f7f7f" fill-opacity="0.85" />
<circle cx="458.58" cy="457.06" r="4.2" fill="#7f7f7f" fill-opacity="0.85" />
<circle cx="610.37" cy="238.80" r="4.2" fill="#7f7f7f" fill-opacity="0.85" />
<circle cx="498.71" cy="468.46" r="4.2" fill="#7f7f7f" fill-opacity="0.85" />
<circle cx="123.89" cy="437.90" r="4.2" fill="#7f7f7f" fill-opacity="0.85" />
<circle cx="810.36" cy="407.85" r="4.2" fill="#7f7f7f" fill-opacity="0.85" />
<circle cx="667.10" cy="384.85" r="4.2" fill="#7f7f7f" fill-opacity="0.85" />
<circle cx="97.02" cy="480.00" r="4.2" fill="#7f7f7f" fill-opacity="0.85" />
<circle cx="652.69" cy="460.53" r="4.2" fill="#7f7f7f" fill-opacity="0.85" />
<circle cx="291.17" cy="460.94" r="4.2" fill="#7f7f7f" fill-opacity="0.85" />
<circle cx="816.80" cy="433.83" r="4.2" fill="#7f7f7f" fill-opacity="0.85" />
<circle cx="382.97" cy="378.86" r="4.2" fill="#7f7f7f" fill-opacity="0.85" />
<circle cx="188.35" cy="370.61" r="4.2" fill="#7f7f7f" fill-opacity="0.85" />
<circle cx="414.33" cy="479.66" r="4.2" fill="#7f7f7f" fill-opacity="0.85" />
<circle cx="395.26" cy="236.86" r="4.2" fill="#7f7f7f" fill-opacity="0.85" />
<circle cx="383.13" cy="388.58" r="4.2" fill="#7f7f7f" fill-opacity="0.85" />
<circle cx="478.03" cy="417.92" r="4.2" fill="#7f7f7f" fill-opacity="0.85" />
<circle cx="200.90" cy="363.11" r="4.2" fill="#7f7f7f" fill-opacity="0.85" />
<circle cx="602.70" cy="240.76" r="4.2" fill="#7f7f7f" fill-opacity="0.85" />
<circle cx="193.54" cy="371.79" r="4.2" fill="#7f7f7f" fill-opacity="0.85" />
<circle cx="294.48" cy="442.72" r="4.2" fill="#7f7f7f" fill-opacity="0.85" />
<circle cx="452.95" cy="382.50" r="4.2" fill="#7f7f7f" fill-opacity="0.85" />
<circle cx="724.49" cy="464.08" r="4.2" fill="#7f7f7f" fill-opacity="0.85" />
<circle cx="761.96" cy="461.14" r="4.2" fill="#7f7f7f" fill-opacity="0.85" />
<circle cx="181.61" cy="480.00" r="4.2" fill="#7f7f7f" fill-opacity="0.85" />
<circle cx="791.66" cy="469.29" r="4.2" fill="#7f7f7f" fill-opacity="0.85" />
<circle cx="98.84" cy="349.67" r="4.2" fill="#7f7f7f" fill-opacity="0.85" />
<circle cx="319.29" cy="475.84" r="4.2" fill="#7f7f7f" fill-opacity="0.85" />
<circle cx="698.28" cy="444.19" r="4.2" fill="#7f7f7f" fill-opacity="0.85" />
<circle cx="136.39" cy="473.11" r="4.2" fill="#7f7f7f" fill-opacity="0.85" />
<circle cx="729.97" cy="447.34" r="4.2" fill="#7f7f7f" fill-opacity="0.85" />
<circle cx="562.06" cy="389.36" r="4.2" fill="#7f7f7f" fill-opacity="0.85" />
<circle cx="289.95" cy="260.31" r="4.2" fill="#7f7f7f" fill-opacity="0.85" />
<circle cx="295.83" cy="354.71" r="4.2" fill="#7f7f7f" fill-opacity="0.85" />
<circle cx="335.68" cy="359.14" r="4.2" fill="#7f7f7f" fill-opacity="0.85" />
<circle cx="169.51" cy="347.19" r="4.2" fill="#7f7f7f" fill-opacity="0.85" />
<circle cx="415.35" cy="464.87" r="4.2" fill="#7f7f7f" fill-opacity="0.85" />
<circle cx="826.69" cy="172.11" r="4.2" fill="#7f7f7f" fill-opacity="0.85" />
<circle cx="430.23" cy="478.41" r="4.2" fill="#7f7f7f" fill-opacity="0.85" />
<circle cx="740.21" cy="356.87" r="4.2" fill="#7f7f7f" fill-opacity="0.85" />
<circle cx="719.87" cy="445.16" r="4.2" fill="#7f7f7f" fill-opacity="0.85" />
<circle cx="209.43" cy="462.25" r="4.2" fill="#7f7f7f" fill-opacity="0.85" />
<circle cx="505.45" cy="87.93" r="4.2" fill="#7f7f7f" fill-opacity="0.85" />
<circle cx="337.58" cy="240.38" r="4.2" fill="#7f7f7f" fill-opacity="0.85" />
<circle cx="134.47" cy="471.26" r="4.2" fill="#7f7f7f" fill-opacity="0.85" />
<circle cx="100.46" cy="443.18" r="4.2" fill="#7f7f7f" fill-opacity="0.85" />
<circle cx="615.82" cy="445.54" r="4.2" fill="#7f7f7f" fill-opacity="0.85" />
<circle cx="495.97" cy="464.83" r="4.2" fill="#7f7f7f" fill-opacity="0.85" />
<circle cx="352.40" cy="434.26" r="4.2" fill="#7f7f7f" fill-opacity="0.85" />
<circle cx="602.40" cy="480.00" r="4.2" fill="#7f7f7f" fill-opacity="0.85" />
<circle cx="611.09" cy="430.42" r="4.2" fill="#7f7f7f" fill-opacity="0.85" />
<circle cx="178.57" cy="462.08" r="4.2" fill="#7f7f7f" fill-opacity="0.85" />
<circle cx="790.07" cy="480.00" r="4.2" fill="#7f7f7f" fill-opacity="0.85" />
<circle cx="577.13" cy="388.96" r="4.2" fill="#7f7f7f" fill-opacity="0.85" />
<circle cx="140.95" cy="480.00" r="4.2" fill="#7f7f7f" fill-opacity="0.85" />
<circle cx="727.63" cy="449.03" r="4.2" fill="#7f7f7f" fill-opacity="0.85" />
<circle cx="375.75" cy="167.65" r="4.2" fill="#7f7f7f" fill-opacity="0.85" />
<circle cx="517.93" cy="342.32" r="4.2" fill="#7f7f7f" fill-opacity="0.85" />
<circle cx="344.83" cy="466.81" r="4.2" fill="#7f7f7f" fill-opacity="0.85" />
<circle cx="693.97" cy="89.18" r="4.2" fill="#7f7f7f" fill-opacity="0.85" />
<circle cx="800.39" cy="423.69" r="4.2" fill="#7f7f7f" fill-opacity="0.85" />
<circle cx="203.79" cy="366.40" r="4.2" fill="#7f7f7f" fill-opacity="0.85" />
<circle cx="536.29" cy="450.21" r="4.2" fill="#7f7f7f" fill-opacity="0.85" />
<circle cx="326.24" cy="454.27" r="4.2" fill="#7f7f7f" fill-opacity="0.85" />
<circle cx="351.04" cy="478.14" r="4.2" fill="#7f7f7f" fill-opacity="0.85" />
<circle cx="718.47" cy="432.98" r="4.2" fill="#7f7f7f" fill-opacity="0.85" />
<circle cx="599.89" cy="419.02" r="4.2" fill="#7f7f7f" fill-opacity="0.85" />
<circle cx="132.17" cy="477.98" r="4.2" fill="#7f7f7f" fill-opacity="0.85" />
<circle cx="779.54" cy="404.35" r="4.2" fill="#7f7f7f" fill-opacity="0.85" />
<circle cx="637.82" cy="454.32" r="4.2" fill="#7f7f7f" fill-opacity="0.85" />
<circle cx="299.62" cy="474.51" r="4.2" fill="#7f7f7f" fill-opacity="0.85" />
<circle cx="216.20" cy="284.33" r="4.2" fill="#7f7f7f" fill-opacity="0.85" />
<circle cx="560.98" cy="229.90" r="4.2" fill="#7f7f7f" fill-opacity="0.85" />
<circle cx="675.36" cy="394.21" r="4.2" fill="#7f7f7f" fill-opacity="0.85" />
<circle cx="232.77" cy="443.78" r="4.2" fill="#7f7f7f" fill-opacity="0.85" />
<circle cx="597.56" cy="363.85" r="4.2" fill="#7f7f7f" fill-opacity="0.85" />
<circle cx="389.78" cy="451.14" r="4.2" fill="#7f7f7f" fill-opacity="0.85" />
<circle cx="337.38" cy="341.15" r="4.2" fill="#7f7f7f" fill-opacity="0.85" />
<circle cx="276.08" cy="379.94" r="4.2" fill="#7f7f7f" fill-opacity="0.85" />
<circle cx="556.35" cy="433.75" r="4.2" fill="#7f7f7f" fill-opacity="0.85" />
<circle cx="545.68" cy="80.47" r="4.2" fill="#7f7f7f" fill-opacity="0.85" />
<circle cx="178.19" cy="104.98" r="4.2" fill="#7f7f7f" fill-opacity="0.85" />
<circle cx="403.18" cy="479.20" r="4.2" fill="#7f7f7f" fill-opacity="0.85" />
<circle cx="769.60" cy="480.00" r="4.2" fill="#7f7f7f" fill-opacity="0.85" />
<circle cx="254.67" cy="223.74" r="4.2" fill="#7f7f7f" fill-opacity="0.85" />
<circle cx="355.37" cy="97.13" r="4.2" fill="#7f7f7f" fill-opacity="0.85" />
<circle cx="150.83" cy="397.71" r="4.2" fill="#7f7f7f" fill-opacity="0.85" />
<circle cx="802.74" cy="154.69" r="4.2" fill="#7f7f7f" fill-opacity="0.85" />
<circle cx="430.59" cy="450.28" r="4.2" fill="#7f7f7f" fill-opacity="0.85" />
<circle cx="778.09" cy="386.32" r="4.2" fill="#7f7f7f" fill-opacity="0.85" />
<circle cx="358.11" cy="414.31" r="4.2" fill="#7f7f7f" fill-opacity="0.85" />
<circle cx="415.07" cy="469.58" r="4.2" fill="#7f7f7f" fill-opacity="0.85" />
<circle cx="559.38" cy="358.86" r="4.2" fill="#7f7f7f" fill-opacity="0.85" />
<circle cx="411.60" cy="452.63" r="4.2" fill="#7f7f7f" fill-opacity="0.85" />
<circle cx="639.77" cy="156.81" r="4.2" fill="#7f7f7f" fill-opacity="0.85" />
<circle cx="650.83" cy="347.60" r="4.2" fill="#7f7f7f" fill-opacity="0.85" />
<circle cx="485.43" cy="471.05" r="4.2" fill="#7f7f7f" fill-opacity="0.85" />
<circle cx="177.59" cy="478.14" r="4.2" fill="#7f7f7f" fill-opacity="0.85" />
<circle cx="739.82" cy="433.82" r="4.2" fill="#7f7f7f" fill-opacity="0.85" />
<circle cx="473.52" cy="395.87" r="4.2" fill="#7f7f7f" fill-opacity="0.85" />
<circle cx="536.37" cy="308.21" r="4.2" fill="#7f7f7f" fill-opacity="0.85" />
<circle cx="615.88" cy="354.10" r="4.2" fill="#7f7f7f" fill-opacity="0.85" />
<circle cx="100.64" cy="480.00" r="4.2" fill="#7f7f7f" fill-opacity="0.85" />
<circle cx="607.23" cy="431.02" r="4.2" fill="#7f7f7f" fill-opacity="0.85" />
<circle cx="706.64" cy="446.28" r="4.2" fill="#7f7f7f" fill-opacity="0.85" />
<circle cx="501.55" cy="88.71" r="4.2" fill="#7f7f7f" fill-opacity="0.85" />
<circle cx="141.41" cy="474.42" r="4.2" fill="#7f7f7f" fill-opacity="0.85" />
<circle cx="579.95" cy="436.47" r="4.2" fill="#7f7f7f" fill-opacity="0.85" />
<circle cx="155.19" cy="219.39" r="4.2" fill="#7f7f7f" fill-opacity="0.85" />
<circle cx="587.27" cy="480.00" r="4.2" fill="#7f7f7f" fill-opacity="0.85" />
<circle cx="215.86" cy="445.24" r="4.2" fill="#7f7f7f" fill-opacity="0.85" />
<circle cx="84.52" cy="432.09" r="4.2" fill="#7f7f7f" fill-opacity="0.85" />
<circle cx="246.59" cy="367.64" r="4.2" fill="#7f7f7f" fill-opacity="0.85" />
<circle cx="593.34" cy="467.71" r="4.2" fill="#7f7f7f" fill-opacity="0.85" />
<circle cx="742.09" cy="204.30" r="4.2" fill="#7f7f7f" fill-opacity="0.85" />
<circle cx="278.87" cy="219.92" r="4.2" fill="#7f7f7f" fill-opacity="0.85" />
<circle cx="117.05" cy="410.61" r="4.2" fill="#7f7f7f" fill-opacity="0.85" />
<circle cx="440.56" cy="391.79" r="4.2" fill="#7f7f7f" fill-opacity="0.85" />
<circle cx="298.17" cy="439.30" r="4.2" fill="#7f7f7f" fill-opacity="0.85" />
<circle cx="362.21" cy="443.48" r="4.2" fill="#7f7f7f" fill-opacity="0.85" />
<circle cx="715.77" cy="367.74" r="4.2" fill="#7f7f7f" fill-opacity="0.85" />
<circle cx="416.61" cy="480.00" r="4.2" fill="#7f7f7f" fill-opacity="0.85" />
<circle cx="156.08" cy="480.00" r="4.2" fill="#7f7f7f" fill-opacity="0.85" />
<circle cx="108.47" cy="358.75" r="4.2" fill="#7f7f7f" fill-opacity="0.85" />
<circle cx="710.49" cy="480.00" r="4.2" fill="#7f7f7f" fill-opacity="0.85" />
<circle cx="624.13" cy="450.52" r="4.2" fill="#7f7f7f" fill-opacity="0.85" />
<circle cx="145.27" cy="462.65" r="4.2" fill="#7f7f7f" fill-opacity="0.85" />
<circle cx="519.71" cy="436.48" r="4.2" fill="#7f7f7f" fill-opacity="0.85" />
<circle cx="170.06" cy="402.97" r="4.2" fill="#7f7f7f" fill-opacity="0.85" />
<circle cx="192.67" cy="438.08" r="4.2" fill="#7f7f7f" fill-opacity="0.85" />
<circle cx="484.64" cy="227.48" r="4.2" fill="#7f7f7f" fill-opacity="0.85" />
<circle cx="463.77" cy="418.89" r="4.2" fill="#7f7f7f" fill-opacity="0.85" />
<circle cx="560.19" cy="433.18" r="4.2" fill="#7f7f7f" fill-opacity="0.85" />
<circle cx="470.49" cy="476.57" r="4.2" fill="#7f7f7f" fill-opacity="0.85" />
<circle cx="323.27" cy="470.55" r="4.2" fill="#7f7f7f" fill-opacity="0.85" />
<circle cx="373.63" cy="439.23" r="4.2" fill="#7f7f7f" fill-opacity="0.85" />
<circle cx="279.66" cy="478.64" r="4.2" fill="#7f7f7f" fill-opacity="0.85" />
<circle cx="210.48" cy="364.47" r="4.2" fill="#7f7f7f" fill-opacity="0.85" />
<circle cx="512.31" cy="463.51" r="4.2" fill="#7f7f7f" fill-opacity="0.85" />
<circle cx="782.73" cy="480.00" r="4.2" fill="#7f7f7f" fill-opacity="0.85" />
<circle cx="651.87" cy="436.71" r="4.2" fill="#7f7f7f" fill-opacity="0.85" />
<circle cx="534.77" cy="452.39" r="4.2" fill="#7f7f7f" fill-opacity="0.85" />
<circle cx="375.99" cy="458.40" r="4.2" fill="#7f7f7f" fill-opacity="0.85" />
<circle cx="143.51" cy="480.00" r="4.2" fill="#7f7f7f" fill-opacity="0.85" />
<circle cx="502.40" cy="352.28" r="4.2" fill="#7f7f7f" fill-opacity="0.85" />
<circle cx="435.67" cy="357.90" r="4.2" fill="#7f7f7f" fill-opacity="0.85" />
<circle cx="129.54" cy="393.21" r="4.2" fill="#7f7f7f" fill-opacity="0.85" />
<circle cx="365.40" cy="372.68" r="4.2" fill="#7f7f7f" fill-opacity="0.85" />
<circle cx="640.63" cy="465.07" r="4.2" fill="#7f7f7f" fill-opacity="0.85" />
<circle cx="639.51" cy="274.60" r="4.2" fill="#7f7f7f" fill-opacity="0.85" />
<circle cx="126.58" cy="475.78" r="4.2" fill="#7f7f7f" fill-opacity="0.85" />
<circle cx="721.68" cy="476.56" r="4.2" fill="#7f7f7f" fill-opacity="0.85" />
<circle cx="783.67" cy="138.57" r="4.2" fill="#7f7f7f" fill-opacity="0.85" />
<circle cx="104.50" cy="453.75" r="4.2" fill="#7f7f7f" fill-opacity="0.85" />
<circle cx="742.25" cy="475.97" r="4.2" fill="#7f7f7f" fill-opacity="0.85" />
<circle cx="402.97" cy="404.05" r="4.2" fill="#7f7f7f" fill-opacity="0.85" />
<circle cx="316.20" cy="480.00" r="4.2" fill="#7f7f7f" fill-opacity="0.85" />
<circle cx="489.31" cy="359.76" r="4.2" fill="#7f7f7f" fill-opacity="0.85" />
<circle cx="289.35" cy="257.68" r="4.2" fill="#7f7f7f" fill-opacity="0.85" />
<circle cx="820.23" cy="204.72" r="4.2" fill="#7f7f7f" fill-opacity="0.85" />
<circle cx="719.90" cy="377.18" r="4.2" fill="#7f7f7f" fill-opacity="0.85" />
<circle cx="464.58" cy="388.33" r="4.2" fill="#7f7f7f" fill-opacity="0.85" />
<circle cx="589.79" cy="353.07" r="4.2" fill="#7f7f7f" fill-opacity="0.85" />
<circle cx="166.28" cy="403.88" r="4.2" fill="#7f7f7f" fill-opacity="0.85" />
<circle cx="210.48" cy="358.10" r="4.2" fill="#7f7f7f" fill-opacity="0.85" />
<circle cx="594.21" cy="352.89" r="4.2" fill="#7f7f7f" fill-opacity="0.85" />
<circle cx="767.69" cy="479.15" r="4.2" fill="#7f7f7f" fill-opacity="0.85" />
<circle cx="461.31" cy="473.18" r="4.2" fill="#7f7f7f" fill-opacity="0.85" />
<circle cx="431.31" cy="480.00" r="4.2" fill="#7f7f7f" fill-opacity="0.85" />
<circle cx="485.98" cy="382.04" r="4.2" fill="#7f7f7f" fill-opacity="0.85" />
<circle cx="261.69" cy="409.02" r="4.2" fill="#7f7f7f" fill-opacity="0.85" />
<circle cx="174.55" cy="463.93" r="4.2" fill="#7f7f7f" fill-opacity="0.85" />
<circle cx="759.10" cy="389.21" r="4.2" fill="#7f7f7f" fill-opacity="0.85" />
<circle cx="501.92" cy="430.68" r="4.2" fill="#7f7f7f" fill-opacity="0.85" />
<circle cx="398.56" cy="431.13" r="4.2" fill="#7f7f7f" fill-opacity="0.85" />
<circle cx="360.54" cy="446.95" r="4.2" fill="#7f7f7f" fill-opacity="0.85" />
<circle cx="207.91" cy="335.48" r="4.2" fill="#7f7f7f" fill-opacity="0.85" />
<circle cx="330.80" cy="472.05" r="4.2" fill="#7f7f7f" fill-opacity="0.85" />
<circle cx="392.56" cy="441.01" r="4.2" fill="#7f7f7f" fill-opacity="0.85" />
<circle cx="747.13" cy="382.82" r="4.2" fill="#7f7f7f" fill-opacity="0.85" />
<circle cx="173.58" cy="480.00" r="4.2" fill="#7f7f7f" fill-opacity="0.85" />
<circle cx="93.25" cy="366.43" r="4.2" fill="#7f7f7f" fill-opacity="0.85" />
<circle cx="806.91" cy="434.95" r="4.2" fill="#7f7f7f" fill-opacity="0.85" />
<circle cx="571.39" cy="223.23" r="4.2" fill="#7f7f7f" fill-opacity="0.85" />
<circle cx="109.22" cy="479.08" r="4.2" fill="#7f7f7f" fill-opacity="0.85" />
<circle cx="534.82" cy="373.01" r="4.2" fill="#7f7f7f" fill-opacity="0.85" />
<circle cx="393.91" cy="465.58" r="4.2" fill="#7f7f7f" fill-opacity="0.85" />
<circle cx="242.41" cy="124.16" r="4.2" fill="#7f7f7f" fill-opacity="0.85" />
<circle cx="370.14" cy="387.30" r="4.2" fill="#7f7f7f" fill-opacity="0.85" />
<circle cx="785.77" cy="470.88" r="4.2" fill="#7f7f7f" fill-opacity="0.85" />
<circle cx="527.45" cy="89.12" r="4.2" fill="#7f7f7f" fill-opacity="0.85" />
<circle cx="833.79" cy="418.10" r="4.2" fill="#7f7f7f" fill-opacity="0.85" />
<circle cx="685.09" cy="239.09" r="4.2" fill="#7f7f7f" fill-opacity="0.85" />
<circle cx="183.24" cy="480.00" r="4.2" fill="#7f7f7f" fill-opacity="0.85" />
<circle cx="565.65" cy="266.30" r="4.2" fill="#7f7f7f" fill-opacity="0.85" />
<circle cx="737.30" cy="473.37" r="4.2" fill="#7f7f7f" fill-opacity="0.85" />
<circle cx="300.15" cy="463.87" r="4.2" fill="#7f7f7f" fill-opacity="0.85" />
<circle cx="448.23" cy="480.00" r="4.2" fill="#7f7f7f" fill-opacity="0.85" />
<circle cx="770.90" cy="385.94" r="4.2" fill="#7f7f7f" fill-opacity="0.85" />
<circle cx="131.16" cy="479.20" r="4.2" fill="#7f7f7f" fill-opacity="0.85" />
<circle cx="703.01" cy="321.45" r="4.2" fill="#7f7f7f" fill-opacity="0.85" />
<circle cx="570.40" cy="356.75" r="4.2" fill="#7f7f7f" fill-opacity="0.85" />
<circle cx="529.04" cy="461.35" r="4.2" fill="#7f7f7f" fill-opacity="0.85" />
<circle cx="218.94" cy="440.75" r="4.2" fill="#7f7f7f" fill-opacity="0.85" />
<circle cx="641.41" cy="461.33" r="4.2" fill="#7f7f7f" fill-opacity="0.85" />
<circle cx="100.22" cy="199.99" r="4.2" fill="#7f7f7f" fill-opacity="0.85" />
<circle cx="101.93" cy="206.25" r="4.2" fill="#7f7f7f" fill-opacity="0.85" />
<circle cx="392.58" cy="453.85" r="4.2" fill="#7f7f7f" fill-opacity="0.85" />
<circle cx="436.91" cy="467.10" r="4.2" fill="#7f7f7f" fill-opacity="0.85" />
<circle cx="260.52" cy="464.68" r="4.2" fill="#7f7f7f" fill-opacity="0.85" />
<circle cx="210.37" cy="462.51" r="4.2" fill="#7f7f7f" fill-opacity="0.85" />
<circle cx="401.97" cy="363.17" r="4.2" fill="#7f7f7f" fill-opacity="0.85" />
<circle cx="436.49" cy="456.05" r="4.2" fill="#7f7f7f" fill-opacity="0.85" />
<circle cx="832.69" cy="460.24" r="4.2" fill="#7f7f7f" fill-opacity="0.85" />
<circle cx="422.65" cy="423.86" r="4.2" fill="#7f7f7f" fill-opacity="0.85" />
<circle cx="505.99" cy="460.92" r="4.2" fill="#7f7f7f" fill-opacity="0.85" />
<circle cx="832.25" cy="63.72" r="4.2" fill="#7f7f7f" fill-opacity="0.85" />
<circle cx="489.65" cy="456.30" r="4.2" fill="#7f7f7f" fill-opacity="0.85" />
<circle cx="369.89" cy="410.39" r="4.2" fill="#7f7f7f" fill-opacity="0.85" />
<circle cx="656.74" cy="458.87" r="4.2" fill="#7f7f7f" fill-opacity="0.85" />
<circle cx="556.36" cy="383.11" r="4.2" fill="#7f7f7f" fill-opacity="0.85" />
<circle cx="537.65" cy="445.07" r="4.2" fill="#7f7f7f" fill-opacity="0.85" />
<circle cx="629.69" cy="473.60" r="4.2" fill="#7f7f7f" fill-opacity="0.85" />
<circle cx="176.10" cy="434.75" r="4.2" fill="#7f7f7f" fill-opacity="0.85" />
<circle cx="689.46" cy="480.00" r="4.2" fill="#7f7f7f" fill-opacity="0.85" />
<circle cx="376.82" cy="60.00" r="4.2" fill="#7f7f7f" fill-opacity="0.85" />
<circle cx="729.02" cy="460.66" r="4.2" fill="#7f7f7f" fill-opacity="0.85" />
<circle cx="517.97" cy="455.69" r="4.2" fill="#7f7f7f" fill-opacity="0.85" />
<circle cx="250.08" cy="462.39" r="4.2" fill="#7f7f7f" fill-opacity="0.85" />
<circle cx="378.41" cy="219.63" r="4.2" fill="#7f7f7f" fill-opacity="0.85" />
<circle cx="273.24" cy="119.17" r="4.2" fill="#7f7f7f" fill-opacity="0.85" />
<circle cx="797.90" cy="388.20" r="4.2" fill="#7f7f7f" fill-opacity="0.85" />
<circle cx="686.88" cy="440.41" r="4.2" fill="#7f7f7f" fill-opacity="0.85" />
<circle cx="129.20" cy="461.72" r="4.2" fill="#7f7f7f" fill-opacity="0.85" />
<circle cx="249.91" cy="365.55" r="4.2" fill="#7f7f7f" fill-opacity="0.85" />
<circle cx="768.86" cy="397.45" r="4.2" fill="#7f7f7f" fill-opacity="0.85" />
<circle cx="556.81" cy="304.35" r="4.2" fill="#7f7f7f" fill-opacity="0.85" />
<circle cx="498.38" cy="364.22" r="4.2" fill="#7f7f7f" fill-opacity="0.85" />
<circle cx="509.92" cy="387.52" r="4.2" fill="#7f7f7f" fill-opacity="0.85" />
<circle cx="673.66" cy="460.92" r="4.2" fill="#7f7f7f" fill-opacity="0.85" />
<circle cx="287.73" cy="439.12" r="4.2" fill="#7f7f7f" fill-opacity="0.85" />
<circle cx="282.79" cy="480.00" r="4.2" fill="#7f7f7f" fill-opacity="0.85" />
<circle cx="227.43" cy="361.25" r="4.2" fill="#7f7f7f" fill-opacity="0.85" />
<circle cx="548.86" cy="476.10" r="4.2" fill="#7f7f7f" fill-opacity="0.85" />
<circle cx="407.57" cy="397.82" r="4.2" fill="#7f7f7f" fill-opacity="0.85" />
<circle cx="807.88" cy="371.26" r="4.2" fill="#7f7f7f" fill-opacity="0.85" />
<circle cx="259.30" cy="480.00" r="4.2" fill="#7f7f7f" fill-opacity="0.85" />
<circle cx="490.15" cy="479.67" r="4.2" fill="#7f7f7f" fill-opacity="0.85" />
<circle cx="599.53" cy="453.27" r="4.2" fill="#7f7f7f" fill-opacity="0.85" />
<circle cx="382.17" cy="470.55" r="4.2" fill="#7f7f7f" fill-opacity="0.85" />
<circle cx="667.38" cy="350.98" r="4.2" fill="#7f7f7f" fill-opacity="0.85" />
<circle cx="668.63" cy="357.19" r="4.2" fill="#7f7f7f" fill-opacity="0.85" />
<circle cx="438.61" cy="258.75" r="4.2" fill="#7f7f7f" fill-opacity="0.85" />
<circle cx="298.28" cy="475.91" r="4.2" fill="#7f7f7f" fill-opacity="0.85" />
<circle cx="278.87" cy="361.65" r="4.2" fill="#7f7f7f" fill-opacity="0.85" />
<circle cx="470.10" cy="439.96" r="4.2" fill="#7f7f7f" fill-opacity="0.85" />
<circle cx="412.81" cy="354.83" r="4.2" fill="#7f7f7f" fill-opacity="0.85" />
<circle cx="288.86" cy="295.97" r="4.2" fill="#7f7f7f" fill-opacity="0.85" />
<circle cx="329.23" cy="471.46" r="4.2" fill="#7f7f7f" fill-opacity="0.85" />
<circle cx="557.60" cy="459.73" r="4.2" fill="#7f7f7f" fill-opacity="0.85" />
<circle cx="330.84" cy="133.51" r="4.2" fill="#7f7f7f" fill-opacity="0.85" />
<circle cx="711.04" cy="460.85" r="4.2" fill="#7f7f7f" fill-opacity="0.85" />
<circle cx="277.31" cy="480.00" r="4.2" fill="#7f7f7f" fill-opacity="0.85" />
<circle cx="375.52" cy="480.00" r="4.2" fill="#7f7f7f" fill-opacity="0.85" />
<circle cx="132.72" cy="435.48" r="4.2" fill="#7f7f7f" fill-opacity="0.85" />
<circle cx="354.07" cy="480.00" r="4.2" fill="#7f7f7f" fill-opacity="0.85" />
<circle cx="525.87" cy="435.09" r="4.2" fill="#7f7f7f" fill-opacity="0.85" />
<circle cx="516.53" cy="459.35" r="4.2" fill="#7f7f7f" fill-opacity="0.85" />
<circle cx="778.11" cy="375.49" r="4.2" fill="#7f7f7f" fill-opacity="0.85" />
<circle cx="787.37" cy="356.31" r="4.2" fill="#7f7f7f" fill-opacity="0.85" />
<circle cx="721.99" cy="359.10" r="4.2" fill="#7f7f7f" fill-opacity="0.85" />
<circle cx="595.64" cy="480.00" r="4.2" fill="#7f7f7f" fill-opacity="0.85" />
<circle cx="207.46" cy="403.05" r="4.2" fill="#7f7f7f" fill-opacity="0.85" />
<circle cx="296.80" cy="363.15" r="4.2" fill="#7f7f7f" fill-opacity="0.85" />
<circle cx="382.23" cy="418.02" r="4.2" fill="#7f7f7f" fill-opacity="0.85" />
<circle cx="539.94" cy="423.04" r="4.2" fill="#7f7f7f" fill-opacity="0.85" />
<circle cx="140.75" cy="480.00" r="4.2" fill="#7f7f7f" fill-opacity="0.85" />
<circle cx="537.55" cy="453.20" r="4.2" fill="#7f7f7f" fill-opacity="0.85" />
<circle cx="134.38" cy="437.10" r="4.2" fill="#7f7f7f" fill-opacity="0.85" />
<circle cx="620.07" cy="472.87" r="4.2" fill="#7f7f7f" fill-opacity="0.85" />
<circle cx="711.60" cy="393.24" r="4.2" fill="#7f7f7f" fill-opacity="0.85" />
<circle cx="532.28" cy="480.00" r="4.2" fill="#7f7f7f" fill-opacity="0.85" />
<circle cx="188.25" cy="474.67" r="4.2" fill="#7f7f7f" fill-opacity="0.85" />
<circle cx="351.82" cy="436.68" r="4.2" fill="#7f7f7f" fill-opacity="0.85" />
<circle cx="463.48" cy="353.43" r="4.2" fill="#7f7f7f" fill-opacity="0.85" />
<circle cx="392.88" cy="445.61" r="4.2" fill="#7f7f7f" fill-opacity="0.85" />
<circle cx="149.27" cy="459.95" r="4.2" fill="#7f7f7f" fill-opacity="0.85" />
<circle cx="535.67" cy="453.84" r="4.2" fill="#7f7f7f" fill-opacity="0.85" />
<circle cx="333.13" cy="366.51" r="4.2" fill="#7f7f7f" fill-opacity="0.85" />
<circle cx="475.03" cy="479.23" r="4.2" fill="#7f7f7f" fill-opacity="0.85" />
<circle cx="682.73" cy="441.82" r="4.2" fill="#7f7f7f" fill-opacity="0.85" />
<circle cx="449.90" cy="166.88" r="4.2" fill="#7f7f7f" fill-opacity="0.85" />
<circle cx="323.34" cy="356.04" r="4.2" fill="#7f7f7f" fill-opacity="0.85" />
<circle cx="157.06" cy="291.06" r="4.2" fill="#7f7f7f" fill-opacity="0.85" />
<circle cx="522.57" cy="415.66" r="4.2" fill="#7f7f7f" fill-opacity="0.85" />
<circle cx="610.92" cy="479.02" r="4.2" fill="#7f7f7f" fill-opacity="0.85" />
<circle cx="246.66" cy="475.79" r="4.2" fill="#7f7f7f" fill-opacity="0.85" />
<circle cx="840.00" cy="366.16" r="4.2" fill="#7f7f7f" fill-opacity="0.85" />
<circle cx="614.01" cy="445.22" r="4.2" fill="#7f7f7f" fill-opacity="0.85" />
<circle cx="650.66" cy="435.18" r="4.2" fill="#7f7f7f" fill-opacity="0.85" />
<circle cx="471.62" cy="213.81" r="4.2" fill="#7f7f7f" fill-opacity="0.85" />
<circle cx="178.65" cy="477.85" r="4.2" fill="#7f7f7f" fill-opacity="0.85" />
<circle cx="609.19" cy="445.60" r="4.2" fill="#7f7f7f" fill-opacity="0.85" />
<circle cx="166.38" cy="462.82" r="4.2" fill="#7f7f7f" fill-opacity="0.85" />
<circle cx="124.77" cy="408.69" r="4.2" fill="#7f7f7f" fill-opacity="0.85" />
<circle cx="555.82" cy="388.22" r="4.2" fill="#7f7f7f" fill-opacity="0.85" />
<circle cx="62.65" cy="433.07" r="4.2" fill="#7f7f7f" fill-opacity="0.85" />
<circle cx="441.45" cy="365.41" r="4.2" fill="#7f7f7f" fill-opacity="0.85" />
<circle cx="735.79" cy="471.31" r="4.2" fill="#7f7f7f" fill-opacity="0.85" />
<circle cx="640.56" cy="355.13" r="4.2" fill="#7f7f7f" fill-opacity="0.85" />
<circle cx="258.20" cy="480.00" r="4.2" fill="#7f7f7f" fill-opacity="0.85" />
<circle cx="228.33" cy="351.29" r="4.2" fill="#7f7f7f" fill-opacity="0.85" />
<circle cx="667.44" cy="434.05" r="4.2" fill="#7f7f7f" fill-opacity="0.85" />
<circle cx="378.97" cy="350.74" r="4.2" fill="#7f7f7f" fill-opacity="0.85" />
<circle cx="834.77" cy="432.15" r="4.2" fill="#7f7f7f" fill-opacity="0.85" />
<circle cx="187.39" cy="480.00" r="4.2" fill="#7f7f7f" fill-opacity="0.85" />
<circle cx="660.21" cy="463.84" r="4.2" fill="#7f7f7f" fill-opacity="0.85" />
<circle cx="412.54" cy="477.48" r="4.2" fill="#7f7f7f" fill-opacity="0.85" />
<circle cx="752.26" cy="239.43" r="4.2" fill="#7f7f7f" fill-opacity="0.85" />
<circle cx="550.28" cy="432.97" r="4.2" fill="#7f7f7f" fill-opacity="0.85" />
<circle cx="105.08" cy="435.58" r="4.2" fill="#7f7f7f" fill-opacity="0.85" />
<circle cx="127.69" cy="477.31" r="4.2" fill="#7f7f7f" fill-opacity="0.85" />
<circle cx="196.13" cy="353.26" r="4.2" fill="#7f7f7f" fill-opacity="0.85" />
<circle cx="187.79" cy="476.66" r="4.2" fill="#7f7f7f" fill-opacity="0.85" />
<circle cx="567.73" cy="458.98" r="4.2" fill="#7f7f7f" fill-opacity="0.85" />
<circle cx="375.71" cy="358.69" r="4.2" fill="#7f7f7f" fill-opacity="0.85" />
<circle cx="422.23" cy="409.62" r="4.2" fill="#7f7f7f" fill-opacity="0.85" />
<circle cx="244.63" cy="380.89" r="4.2" fill="#7f7f7f" fill-opacity="0.85" />
<circle cx="605.94" cy="386.95" r="4.2" fill="#7f7f7f" fill-opacity="0.85" />
<circle cx="713.18" cy="439.88" r="4.2" fill="#7f7f7f" fill-opacity="0.85" />
<circle cx="608.10" cy="373.81" r="4.2" fill="#7f7f7f" fill-opacity="0.85" />
<circle cx="584.40" cy="365.48" r="4.2" fill="#7f7f7f" fill-opacity="0.85" />
<circle cx="753.08" cy="378.03" r="4.2" fill="#7f7f7f" fill-opacity="0.85" />
<circle cx="464.91" cy="352.91" r="4.2" fill="#7f7f7f" fill-opacity="0.85" />
<circle cx="313.72" cy="423.81" r="4.2" fill="#7f7f7f" fill-opacity="0.85" />
<circle cx="479.97" cy="328.22" r="4.2" fill="#7f7f7f" fill-opacity="0.85" />
<circle cx="479.36" cy="253.23" r="4.2" fill="#7f7f7f" fill-opacity="0.85" />
<circle cx="274.53" cy="169.81" r="4.2" fill="#7f7f7f" fill-opacity="0.85" />
<circle cx="352.40" cy="478.61" r="4.2" fill="#7f7f7f" fill-opacity="0.85" />
<circle cx="243.08" cy="386.61" r="4.2" fill="#7f7f7f" fill-opacity="0.85" />
<circle cx="706.58" cy="474.73" r="4.2" fill="#7f7f7f" fill-opacity="0.85" />
<circle cx="407.13" cy="438.16" r="4.2" fill="#7f7f7f" fill-opacity="0.85" />
<circle cx="535.48" cy="480.00" r="4.2" fill="#7f7f7f" fill-opacity="0.85" />
<circle cx="722.39" cy="420.98" r="4.2" fill="#7f7f7f" fill-opacity="0.85" />
<circle cx="203.83" cy="375.36" r="4.2" fill="#7f7f7f" fill-opacity="0.85" />
<circle cx="411.89" cy="475.29" r="4.2" fill="#7f7f7f" fill-opacity="0.85" />
<circle cx="414.21" cy="417.18" r="4.2" fill="#7f7f7f" fill-opacity="0.85" />
<circle cx="462.24" cy="480.00" r="4.2" fill="#7f7f7f" fill-opacity="0.85" />
<circle cx="550.86" cy="461.10" r="4.2" fill="#7f7f7f" fill-opacity="0.85" />
<circle cx="528.12" cy="366.68" r="4.2" fill="#7f7f7f" fill-opacity="0.85" />
<circle cx="558.87" cy="480.00" r="4.2" fill="#7f7f7f" fill-opacity="0.85" />
<circle cx="460.33" cy="357.36" r="4.2" fill="#7f7f7f" fill-opacity="0.85" />
<circle cx="678.94" cy="440.23" r="4.2" fill="#7f7f7f" fill-opacity="0.85" />
<circle cx="717.90" cy="466.34" r="4.2" fill="#7f7f7f" fill-opacity="0.85" />
<circle cx="770.40" cy="475.96" r="4.2" fill="#7f7f7f" fill-opacity="0.85" />
<circle cx="233.67" cy="249.49" r="4.2" fill="#7f7f7f" fill-opacity="0.85" />
<circle cx="514.16" cy="266.35" r="4.2" fill="#7f7f7f" fill-opacity="0.85" />
<circle cx="445.29" cy="438.12" r="4.2" fill="#7f7f7f" fill-opacity="0.85" />
<circle cx="182.06" cy="470.48" r="4.2" fill="#7f7f7f" fill-opacity="0.85" />
<circle cx="337.39" cy="157.13" r="4.2" fill="#7f7f7f" fill-opacity="0.85" />
<circle cx="374.61" cy="469.91" r="4.2" fill="#7f7f7f" fill-opacity="0.85" />
<circle cx="634.43" cy="362.95" r="4.2" fill="#7f7f7f" fill-opacity="0.85" />
<circle cx="688.97" cy="371.96" r="4.2" fill="#7f7f7f" fill-opacity="0.85" />
<circle cx="289.29" cy="432.53" r="4.2" fill="#7f7f7f" fill-opacity="0.85" />
<circle cx="771.12" cy="430.86" r="4.2" fill="#7f7f7f" fill-opacity="0.85" />
<circle cx="284.30" cy="469.50" r="4.2" fill="#7f7f7f" fill-opacity="0.85" />
<circle cx="655.78" cy="480.00" r="4.2" fill="#7f7f7f" fill-opacity="0.85" />
<circle cx="197.93" cy="474.66" r="4.2" fill="#7f7f7f" fill-opacity="0.85" />
<circle cx="503.92" cy="425.35" r="4.2" fill="#7f7f7f" fill-opacity="0.85" />
<circle cx="180.63" cy="227.62" r="4.2" fill="#7f7f7f" fill-opacity="0.85" />
<circle cx="558.52" cy="471.45" r="4.2" fill="#7f7f7f" fill-opacity="0.85" />
<circle cx="271.31" cy="437.79" r="4.2" fill="#7f7f7f" fill-opacity="0.85" />
<circle cx="373.56" cy="414.60" r="4.2" fill="#7f7f7f" fill-opacity="0.85" />
<circle cx="129.90" cy="432.90" r="4.2" fill="#7f7f7f" fill-opacity="0.85" />
<circle cx="126.66" cy="157.50" r="4.2" fill="#7f7f7f" fill-opacity="0.85" />
<circle cx="745.48" cy="470.65" r="4.2" fill="#7f7f7f" fill-opacity="0.85" />
<circle cx="723.05" cy="229.82" r="4.2" fill="#7f7f7f" fill-opacity="0.85" />
<circle cx="316.12" cy="460.21" r="4.2" fill="#7f7f7f" fill-opacity="0.85" />
<circle cx="698.75" cy="378.99" r="4.2" fill="#7f7f7f" fill-opacity="0.85" />
<circle cx="543.99" cy="445.28" r="4.2" fill="#7f7f7f" fill-opacity="0.85" />
<circle cx="761.10" cy="399.62" r="4.2" fill="#7f7f7f" fill-opacity="0.85" />
<circle cx="403.53" cy="454.69" r="4.2" fill="#7f7f7f" fill-opacity="0.85" />
<circle cx="160.93" cy="480.00" r="4.2" fill="#7f7f7f" fill-opacity="0.85" />
<circle cx="221.77" cy="471.63" r="4.2" fill="#7f7f7f" fill-opacity="0.85" />
<circle cx="202.72" cy="476.03" r="4.2" fill="#7f7f7f" fill-opacity="0.85" />
<circle cx="821.75" cy="101.07" r="4.2" fill="#7f7f7f" fill-opacity="0.85" />
<circle cx="361.42" cy="347.62" r="4.2" fill="#7f7f7f" fill-opacity="0.85" />
<circle cx="374.53" cy="460.17" r="4.2" fill="#7f7f7f" fill-opacity="0.85" />
<circle cx="303.48" cy="455.22" r="4.2" fill="#7f7f7f" fill-opacity="0.85" />
<circle cx="84.59" cy="460.81" r="4.2" fill="#7f7f7f" fill-opacity="0.85" />
<circle cx="619.80" cy="383.75" r="4.2" fill="#7f7f7f" fill-opacity="0.85" />
<circle cx="677.75" cy="425.82" r="4.2" fill="#7f7f7f" fill-opacity="0.85" />
<circle cx="513.80" cy="478.48" r="4.2" fill="#7f7f7f" fill-opacity="0.85" />
<circle cx="270.08" cy="417.03" r="4.2" fill="#7f7f7f" fill-opacity="0.85" />
<circle cx="145.29" cy="470.97" r="4.2" fill="#7f7f7f" fill-opacity="0.85" />
<circle cx="626.40" cy="384.73" r="4.2" fill="#7f7f7f" fill-opacity="0.85" />
<circle cx="695.46" cy="475.69" r="4.2" fill="#7f7f7f" fill-opacity="0.85" />
<circle cx="634.80" cy="480.00" r="4.2" fill="#7f7f7f" fill-opacity="0.85" />
<circle cx="715.84" cy="333.94" r="4.2" fill="#7f7f7f" fill-opacity="0.85" />
<circle cx="440.35" cy="478.16" r="4.2" fill="#7f7f7f" fill-opacity="0.85" />
<circle cx="390.07" cy="206.90" r="4.2" fill="#7f7f7f" fill-opacity="0.85" />
<circle cx="766.08" cy="480.00" r="4.2" fill="#7f7f7f" fill-opacity="0.85" />
<circle cx="578.00" cy="180.36" r="4.2" fill="#7f7f7f" fill-opacity="0.85" />
<circle cx="763.56" cy="460.96" r="4.2" fill="#7f7f7f" fill-opacity="0.85" />
<circle cx="620.38" cy="333.05" r="4.2" fill="#7f7f7f" fill-opacity="0.85" />
<circle cx="250.01" cy="480.00" r="4.2" fill="#7f7f7f" fill-opacity="0.85" />
<circle cx="636.07" cy="429.87" r="4.2" fill="#7f7f7f" fill-opacity="0.85" />
<circle cx="768.19" cy="387.86" r="4.2" fill="#7f7f7f" fill-opacity="0.85" />
<circle cx="351.36" cy="162.62" r="4.2" fill="#7f7f7f" fill-opacity="0.85" />
<circle cx="685.39" cy="356.62" r="4.2" fill="#7f7f7f" fill-opacity="0.85" />
<circle cx="772.61" cy="480.00" r="4.2" fill="#7f7f7f" fill-opacity="0.85" />
<circle cx="467.08" cy="417.82" r="4.2" fill="#7f7f7f" fill-opacity="0.85" />
<circle cx="453.68" cy="435.07" r="4.2" fill="#7f7f7f" fill-opacity="0.85" />
<circle cx="344.73" cy="440.24" r="4.2" fill="#7f7f7f" fill-opacity="0.85" />
<circle cx="425.52" cy="241.22" r="4.2" fill="#7f7f7f" fill-opacity="0.85" />
<circle cx="299.84" cy="480.00" r="4.2" fill="#7f7f7f" fill-opacity="0.85" />
<circle cx="411.57" cy="412.95" r="4.2" fill="#7f7f7f" fill-opacity="0.85" />
<circle cx="137.15" cy="427.05" r="4.2" fill="#7f7f7f" fill-opacity="0.85" />
<circle cx="179.53" cy="479.26" r="4.2" fill="#7f7f7f" fill-opacity="0.85" />
<circle cx="169.05" cy="398.41" r="4.2" fill="#7f7f7f" fill-opacity="0.85" />
<circle cx="782.59" cy="394.87" r="4.2" fill="#7f7f7f" fill-opacity="0.85" />
<circle cx="500.99" cy="460.64" r="4.2" fill="#7f7f7f" fill-opacity="0.85" />
<circle cx="299.67" cy="478.68" r="4.2" fill="#7f7f7f" fill-opacity="0.85" />
<circle cx="677.17" cy="349.83" r="4.2" fill="#7f7f7f" fill-opacity="0.85" />
<circle cx="286.84" cy="480.00" r="4.2" fill="#7f7f7f" fill-opacity="0.85" />
<circle cx="661.34" cy="464.31" r="4.2" fill="#7f7f7f" fill-opacity="0.85" />
<circle cx="638.20" cy="100.82" r="4.2" fill="#7f7f7f" fill-opacity="0.85" />
<circle cx="428.72" cy="377.50" r="4.2" fill="#7f7f7f" fill-opacity="0.85" />
<circle cx="737.55" cy="473.79" r="4.2" fill="#7f7f7f" fill-opacity="0.85" />
<circle cx="87.92" cy="404.48" r="4.2" fill="#7f7f7f" fill-opacity="0.85" />
<circle cx="594.43" cy="453.84" r="4.2" fill="#7f7f7f" fill-opacity="0.85" />
<circle cx="642.46" cy="116.27" r="4.2" fill="#7f7f7f" fill-opacity="0.85" />
<circle cx="703.28" cy="377.42" r="4.2" fill="#7f7f7f" fill-opacity="0.85" />
<circle cx="185.09" cy="368.12" r="4.2" fill="#7f7f7f" fill-opacity="0.85" />
<circle cx="232.69" cy="357.68" r="4.2" fill="#7f7f7f" fill-opacity="0.85" />
<circle cx="169.79" cy="202.39" r="4.2" fill="#7f7f7f" fill-opacity="0.85" />
<circle cx="792.07" cy="432.49" r="4.2" fill="#7f7f7f" fill-opacity="0.85" />
<circle cx="383.92" cy="429.44" r="4.2" fill="#7f7f7f" fill-opacity="0.85" />
<circle cx="278.51" cy="349.08" r="4.2" fill="#7f7f7f" fill-opacity="0.85" />
<circle cx="405.69" cy="466.70" r="4.2" fill="#7f7f7f" fill-opacity="0.85" />
<circle cx="88.56" cy="460.17" r="4.2" fill="#7f7f7f" fill-opacity="0.85" />
<circle cx="254.71" cy="475.72" r="4.2" fill="#7f7f7f" fill-opacity="0.85" />
<circle cx="515.46" cy="457.49" r="4.2" fill="#7f7f7f" fill-opacity="0.85" />
<circle cx="414.74" cy="372.49" r="4.2" fill="#7f7f7f" fill-opacity="0.85" />
<circle cx="339.46" cy="364.07" r="4.2" fill="#7f7f7f" fill-opacity="0.85" />
<circle cx="567.75" cy="360.14" r="4.2" fill="#7f7f7f" fill-opacity="0.85" />
<circle cx="280.66" cy="420.45" r="4.2" fill="#7f7f7f" fill-opacity="0.85" />
<circle cx="753.49" cy="60.08" r="4.2" fill="#7f7f7f" fill-opacity="0.85" />
<circle cx="708.11" cy="352.89" r="4.2" fill="#7f7f7f" fill-opacity="0.85" />
<circle cx="575.23" cy="479.37" r="4.2" fill="#7f7f7f" fill-opacity="0.85" />
<circle cx="112.03" cy="82.82" r="4.2" fill="#7f7f7f" fill-opacity="0.85" />
<circle cx="665.01" cy="458.77" r="4.2" fill="#7f7f7f" fill-opacity="0.85" />
<circle cx="489.01" cy="459.26" r="4.2" fill="#7f7f7f" fill-opacity="0.85" />
<circle cx="621.96" cy="213.70" r="4.2" fill="#7f7f7f" fill-opacity="0.85" />
<circle cx="430.32" cy="477.30" r="4.2" fill="#7f7f7f" fill-opacity="0.85" />
<circle cx="666.39" cy="432.57" r="4.2" fill="#7f7f7f" fill-opacity="0.85" />
<circle cx="270.29" cy="375.89" r="4.2" fill="#7f7f7f" fill-opacity="0.85" />
<circle cx="771.11" cy="358.70" r="4.2" fill="#7f7f7f" fill-opacity="0.85" />
<circle cx="394.15" cy="248.06" r="4.2" fill="#7f7f7f" fill-opacity="0.85" />
<circle cx="496.72" cy="410.26" r="4.2" fill="#7f7f7f" fill-opacity="0.85" />
<circle cx="487.71" cy="405.69" r="4.2" fill="#7f7f7f" fill-opacity="0.85" />
<circle cx="295.41" cy="480.00" r="4.2" fill="#7f7f7f" fill-opacity="0.85" />
<circle cx="605.10" cy="435.93" r="4.2" fill="#7f7f7f" fill-opacity="0.85" />
<circle cx="514.95" cy="439.53" r="4.2" fill="#7f7f7f" fill-opacity="0.85" />
<circle cx="298.54" cy="107.18" r="4.2" fill="#7f7f7f" fill-opacity="0.85" />
<circle cx="739.80" cy="354.88" r="4.2" fill="#7f7f7f" fill-opacity="0.85" />
<circle cx="148.12" cy="420.01" r="4.2" fill="#7f7f7f" fill-opacity="0.85" />
<circle cx="239.94" cy="356.96" r="4.2" fill="#7f7f7f" fill-opacity="0.85" />
<circle cx="330.83" cy="477.86" r="4.2" fill="#7f7f7f" fill-opacity="0.85" />
<circle cx="118.36" cy="470.94" r="4.2" fill="#7f7f7f" fill-opacity="0.85" />
<text x="680.0" y="68.0" font-size="12">x-range=[-8.61, 8.32]</text>
<text x="680.0" y="84.0" font-size="12">y-range=[0.00, 1.10]</text>
</svg>